<svg id="Layer_1" data-name="Layer 1" xmlns="http://www.w3.org/2000/svg" xmlns:xlink="http://www.w3.org/1999/xlink" viewBox="0 0 1080 1080"><defs><style>.cls-1{fill:#58ca58;}.cls-2{fill:#0e7a46;}.cls-3{fill:none;}.cls-4{fill:#ecfbec;}.cls-5{fill:#cdf2ca;}.cls-6{isolation:isolate;}.cls-7{clip-path:url(#clip-path);}.cls-8{fill:url(#Thick-Green-Diagonal01-wBG);}.cls-9{clip-path:url(#clip-path-2);}.cls-10{fill:#bce6b8;}</style><clipPath id="clip-path"><path class="cls-1" d="M772.1,119.88l35.24,20.48c-62.7-36.43-149.53-31.3-245.36,24l-35.24-20.48C622.57,88.58,709.4,83.45,772.1,119.88Z"/></clipPath><pattern id="Thick-Green-Diagonal01-wBG" data-name="Thick-Green-Diagonal01-wBG" width="36.88" height="21.29" patternTransform="translate(-227.98 164.53) scale(5)" patternUnits="userSpaceOnUse" viewBox="0 0 36.88 21.29"><rect class="cls-3" width="36.88" height="21.29"/><polygon class="cls-4" points="0.75 0 36.88 20.86 36.88 19.36 3.35 0 0.75 0"/><polygon class="cls-4" points="4.85 0 36.88 18.49 36.88 16.99 7.44 0 4.85 0"/><polygon class="cls-4" points="13.04 0 36.88 13.76 36.88 12.26 15.64 0 13.04 0"/><polygon class="cls-4" points="0 1.93 33.53 21.29 36.13 21.29 0 0.43 0 1.93"/><polygon class="cls-4" points="0 4.3 29.43 21.29 32.03 21.29 0 2.8 0 4.3"/><polygon class="cls-4" points="8.94 0 36.88 16.13 36.88 14.63 11.54 0 8.94 0"/><polygon class="cls-4" points="0 9.03 21.24 21.29 23.83 21.29 0 7.53 0 9.03"/><polygon class="cls-4" points="0 6.66 25.33 21.29 27.93 21.29 0 5.16 0 6.66"/><polygon class="cls-4" points="0 20.86 0.75 21.29 3.35 21.29 0 19.36 0 20.86"/><polygon class="cls-4" points="0 13.76 13.04 21.29 15.64 21.29 0 12.26 0 13.76"/><polygon class="cls-4" points="0 16.13 8.94 21.29 11.54 21.29 0 14.63 0 16.13"/><polygon class="cls-4" points="0 11.39 17.14 21.29 19.74 21.29 0 9.89 0 11.39"/><polygon class="cls-4" points="17.14 0 36.88 11.39 36.88 9.89 19.74 0 17.14 0"/><polygon class="cls-4" points="0 18.49 4.85 21.29 7.45 21.29 0 16.99 0 18.49"/><polygon class="cls-4" points="25.33 0 36.88 6.66 36.88 5.16 27.93 0 25.33 0"/><polygon class="cls-4" points="21.24 0 36.88 9.03 36.88 7.53 23.83 0 21.24 0"/><polygon class="cls-4" points="29.43 0 36.88 4.3 36.88 2.8 32.03 0 29.43 0"/><polygon class="cls-4" points="36.13 0 33.53 0 36.88 1.93 36.88 0.43 36.13 0"/><polygon class="cls-5" points="36.88 0 36.13 0 36.88 0.43 36.88 0"/><polygon class="cls-5" points="32.03 0 36.88 2.8 36.88 1.93 33.53 0 32.03 0"/><polygon class="cls-5" points="27.93 0 36.88 5.16 36.88 4.3 29.43 0 27.93 0"/><polygon class="cls-5" points="23.83 0 36.88 7.53 36.88 6.66 25.33 0 23.83 0"/><polygon class="cls-5" points="19.74 0 36.88 9.89 36.88 9.03 21.24 0 19.74 0"/><polygon class="cls-5" points="15.64 0 36.88 12.26 36.88 11.39 17.14 0 15.64 0"/><polygon class="cls-5" points="11.54 0 36.88 14.63 36.88 13.76 13.04 0 11.54 0"/><polygon class="cls-5" points="7.44 0 36.88 16.99 36.88 16.13 8.94 0 7.44 0"/><polygon class="cls-5" points="3.35 0 36.88 19.36 36.88 18.49 4.85 0 3.35 0"/><polygon class="cls-5" points="0 0 0 0.43 36.13 21.29 36.88 21.29 36.88 20.86 0.75 0 0 0"/><polygon class="cls-5" points="0 2.8 32.03 21.29 33.53 21.29 0 1.93 0 2.8"/><polygon class="cls-5" points="0 5.16 27.93 21.29 29.43 21.29 0 4.3 0 5.16"/><polygon class="cls-5" points="0 7.53 23.83 21.29 25.33 21.29 0 6.66 0 7.53"/><polygon class="cls-5" points="0 9.89 19.74 21.29 21.24 21.29 0 9.03 0 9.89"/><polygon class="cls-5" points="0 12.26 15.64 21.29 17.14 21.29 0 11.39 0 12.26"/><polygon class="cls-5" points="0 14.63 11.54 21.29 13.04 21.29 0 13.76 0 14.63"/><polygon class="cls-5" points="0 16.99 7.45 21.29 8.94 21.29 0 16.13 0 16.99"/><polygon class="cls-5" points="0 19.36 3.35 21.29 4.85 21.29 0 18.49 0 19.36"/><polygon class="cls-5" points="0 21.29 0.75 21.29 0 20.86 0 21.29"/></pattern><clipPath id="clip-path-2"><path class="cls-2" d="M318.87,980.87l-35.24-20.48c-61.9-36-100.28-112.46-100.59-221.17-.62-218.82,153.26-485.36,343.7-595.31L562,164.39c-190.44,110-344.32,376.49-343.7,595.31C218.59,868.41,257,944.9,318.87,980.87Z"/></clipPath></defs><g class="cls-6"><path class="cls-1" d="M772.1,119.88l35.24,20.48c-62.7-36.43-149.53-31.3-245.36,24l-35.24-20.48C622.57,88.58,709.4,83.45,772.1,119.88Z"/><g class="cls-7"><g class="cls-6"><path class="cls-1" d="M562,164.39l-35.24-20.48a417.25,417.25,0,0,1,48.29-24l35.24,20.48a417.25,417.25,0,0,0-48.29,24"/><path class="cls-1" d="M610.27,140.37,575,119.89a332.38,332.38,0,0,1,40.59-14l35.24,20.48a332.38,332.38,0,0,0-40.59,14"/><path class="cls-1" d="M650.86,126.37l-35.24-20.48A277.1,277.1,0,0,1,646,99.41l35.24,20.48a277.1,277.1,0,0,0-30.34,6.48"/><path class="cls-1" d="M681.2,119.89,646,99.41a239.39,239.39,0,0,1,25.71-2.58l35.24,20.48a239.39,239.39,0,0,0-25.71,2.58"/><path class="cls-1" d="M706.91,117.31,671.67,96.83a213.73,213.73,0,0,1,22.82.19l35.24,20.48a211.13,211.13,0,0,0-22.82-.19"/><path class="cls-1" d="M729.73,117.5,694.49,97a192.47,192.47,0,0,1,20.83,2.43l35.24,20.48a192.47,192.47,0,0,0-20.83-2.43"/><path class="cls-1" d="M750.56,119.93,715.32,99.45a178.73,178.73,0,0,1,19.36,4.47l35.24,20.48a178.73,178.73,0,0,0-19.36-4.47"/><path class="cls-1" d="M769.92,124.4l-35.24-20.48a169.27,169.27,0,0,1,18.22,6.42l35.23,20.48a168.34,168.34,0,0,0-18.21-6.42"/><path class="cls-1" d="M788.13,130.82,752.9,110.34a164.89,164.89,0,0,1,17.31,8.46l35.24,20.48a164.09,164.09,0,0,0-17.32-8.46"/><path class="cls-1" d="M805.45,139.28,770.21,118.8l1.89,1.08,35.24,20.48-1.89-1.08"/></g></g><ellipse class="cls-8" cx="563.1" cy="560.62" rx="486.07" ry="281.55" transform="translate(-204.54 765.79) rotate(-59.84)"/><path class="cls-2" d="M318.87,980.87l-35.24-20.48c-61.9-36-100.28-112.46-100.59-221.17-.62-218.82,153.26-485.36,343.7-595.31L562,164.39c-190.44,110-344.32,376.49-343.7,595.31C218.59,868.41,257,944.9,318.87,980.87Z"/><g class="cls-9"><g class="cls-6"><path class="cls-2" d="M318.87,980.87l-35.24-20.48c-61.9-36-100.28-112.46-100.59-221.17a514.78,514.78,0,0,1,4.41-67.48l35.24,20.48a514.78,514.78,0,0,0-4.41,67.48c.31,108.71,38.69,185.2,100.59,221.17"/><path class="cls-2" d="M222.69,692.22l-35.24-20.48q3.08-23.75,8.21-47.82L230.9,644.4q-5.11,24-8.21,47.82"/><path class="cls-2" d="M230.9,644.4l-35.24-20.48q4.2-19.74,9.7-39.56l35.24,20.48q-5.49,19.8-9.7,39.56"/><path class="cls-2" d="M240.6,604.84l-35.24-20.48q4.88-17.58,10.73-35.15l35.24,20.48q-5.85,17.55-10.73,35.15"/><path class="cls-2" d="M251.33,569.69l-35.24-20.48q5.43-16.31,11.67-32.54L263,537.15q-6.22,16.22-11.67,32.54"/><path class="cls-2" d="M263,537.15l-35.24-20.48q6-15.54,12.65-30.94l35.24,20.48Q269,521.6,263,537.15"/><path class="cls-2" d="M275.65,506.21l-35.24-20.48q6.54-15.06,13.7-29.93l35.24,20.48q-7.17,14.87-13.7,29.93"/><path class="cls-2" d="M289.35,476.28,254.11,455.8Q261.24,441,269,426.48L304.21,447q-7.72,14.54-14.86,29.32"/><path class="cls-2" d="M304.21,447,269,426.48q7.8-14.67,16.19-29l35.24,20.47q-8.38,14.37-16.19,29"/><path class="cls-2" d="M320.4,417.91l-35.24-20.47q8.61-14.78,17.81-29.17l35.24,20.48Q329,403.14,320.4,417.91"/><path class="cls-2" d="M338.21,388.75,303,368.27q9.67-15.13,20-29.8L358.17,359q-10.28,14.66-20,29.8"/><path class="cls-2" d="M358.17,359l-35.24-20.48q11.15-15.89,22.95-31.12l35.24,20.48Q369.33,343.06,358.17,359"/><path class="cls-2" d="M381.12,327.83l-35.24-20.48q13.59-17.52,28-34.07l35.24,20.48q-14.39,16.53-28,34.07"/><path class="cls-2" d="M409.1,293.76l-35.24-20.48q18.25-21,37.67-40.14l35.24,20.48q-19.39,19.13-37.67,40.14"/><path class="cls-2" d="M446.77,253.62l-35.24-20.48c36-35.49,74.78-65.89,115.21-89.23L562,164.39c-40.43,23.34-79.2,53.73-115.21,89.23"/></g></g></g><path class="cls-10" d="M756.21,458.91l-28.78,16.62.07,22.91,28.77-17.05.09,30.68-28.77,16.62L728,659.64l-70.34,40.61-84.82-82.2-48.69,28.11.37,131-73.73,42.56-.37-130.95-28.77,16.61-.09-30.25,28.78-16.61-.07-22.91-28.77,16.61-.09-30.68,28.77-16.61-.37-130.53,70.34-40.61,84.83,81.77,48.69-28.11-.37-130.53L727,314.32l.37,130.53,28.77-16.62ZM653.78,541l-.06-22.91-29,16.74,14.78,14.41L653.78,541M524,615.92l29-16.74-14.77-14.42L524,593l.06,22.92"/></svg>